# Blender v2.91.2 OBJ File: ''
# www.blender.org
mtllib cylindertop.mtl
o Cylinder.001
v 0.000000 -0.000000 0.000000
v 0.707107 0.000000 -0.707107
v 0.000000 0.000000 -1.000000
v 1.000000 -0.000000 0.000000
v 0.707107 -0.000000 0.707107
v 0.000000 -0.000000 1.000000
v -0.707107 -0.000000 0.707107
v -1.000000 -0.000000 0.000000
v -0.707107 0.000000 -0.707107
vt 0.500000 0.500000
vt 0.000100 0.707065
vt 0.000100 0.292935
vt 0.292935 0.999900
vt 0.707065 0.999900
vt 0.999900 0.707065
vt 0.999900 0.292935
vt 0.707065 0.000100
vt 0.292935 0.000100
vn 0.0000 1.0000 0.0000
usemtl None
s 1
f 1/1/1 2/2/1 3/3/1
f 1/1/1 4/4/1 2/2/1
f 1/1/1 5/5/1 4/4/1
f 1/1/1 6/6/1 5/5/1
f 1/1/1 7/7/1 6/6/1
f 1/1/1 8/8/1 7/7/1
f 1/1/1 9/9/1 8/8/1
f 1/1/1 3/3/1 9/9/1
